<?xml version="1.0" encoding="utf-8"?>
<!-- Generator: Adobe Illustrator 21.1.0, SVG Export Plug-In . SVG Version: 6.00 Build 0)  -->
<svg version="1.1"
	 id="Layer_1" xmlns:cc="http://creativecommons.org/ns#" xmlns:dc="http://purl.org/dc/elements/1.1/" xmlns:rdf="http://www.w3.org/1999/02/22-rdf-syntax-ns#"
	 xmlns="http://www.w3.org/2000/svg" xmlns:xlink="http://www.w3.org/1999/xlink" x="0px" y="0px" viewBox="0 0 64 64"
	 style="enable-background:new 0 0 64 64;" xml:space="preserve">
<style type="text/css">
	.st0{fill:#FFFFFF;fill-opacity:0.13;}
</style>
<g>
	<path class="st0" d="M29.2,32.4l-1.9,7.7c2.4,0.6,9.7,2.9,10.8-1.4C39.2,34.1,31.6,33,29.2,32.4z"/>
	<path class="st0" d="M31.8,21.8l-1.7,7c2,0.5,8.1,2.5,9.1-1.5C40.2,23.2,33.8,22.3,31.8,21.8z"/>
	<path class="st0" d="M39.7,1C22.6-3.3,5.2,7.1,1,24.3C-3.3,41.4,7.1,58.8,24.3,63c17.1,4.3,34.5-6.2,38.8-23.3
		C67.3,22.6,56.9,5.2,39.7,1z M46.1,27.4c-0.5,3.1-2.2,4.6-4.5,5.2c3.2,1.6,4.8,4.2,3.2,8.5c-1.9,5.4-6.4,5.9-12.4,4.7L31,51.7
		l-3.5-0.9l1.4-5.7c-0.9-0.2-1.8-0.5-2.8-0.7l-1.4,5.8l-3.5-0.9l1.5-5.8c-0.8-0.2-1.7-0.4-2.5-0.6l-4.6-1.1l1.7-4
		c0,0,2.6,0.7,2.6,0.6c1,0.2,1.4-0.4,1.6-0.8l2.3-9.2c0.1,0,0.3,0.1,0.4,0.1c-0.1-0.1-0.3-0.1-0.4-0.1l1.6-6.6c0-0.7-0.2-1.7-1.6-2
		c0.1,0-2.5-0.6-2.5-0.6l0.9-3.8l4.8,1.2l0,0c0.7,0.2,1.5,0.4,2.2,0.5l1.4-5.8l3.5,0.9l-1.4,5.7c0.9,0.2,1.9,0.4,2.8,0.7l1.4-5.6
		l3.5,0.9l-1.4,5.8C43.5,20.9,46.7,23.2,46.1,27.4z"/>
</g>
</svg>
