<svg width="540" height="860" xmlns="http://www.w3.org/2000/svg" xmlns:xlink="http://www.w3.org/1999/xlink">
 <style>.st0{fill:#fff}.st1{opacity:.15}.st2{clip-path:url(#SVGID_2_);fill:#fff}.st3{opacity:.1175}.st4{clip-path:url(#SVGID_4_);fill:#fff}.st5{opacity:.15}.st6,.st7,.st8{clip-path:url(#SVGID_6_);fill:#fff}.st7,.st8{clip-path:url(#SVGID_8_)}.st8{clip-path:url(#SVGID_10_)}</style>
 <g>
  <title>background</title>
  <rect fill="none" id="canvas_background" height="862" width="542" y="-1" x="-1"/>
 </g>
 <g>
  <title>Layer 1</title>
  <g id="svg_2" class="st1">
   <defs transform="translate(0,-2.000432014465332) translate(-390.0842590332031,4.000864505767822) translate(-2.000432014465332,0) translate(-2.000432014465332,0) translate(-2.000432014465332,0) translate(-2.000432014465332,0) translate(-2.000432014465332,0) translate(-2.000432014465332,0) translate(-2.000432014465332,0) translate(-2.000432014465332,0) translate(-2.000432014465332,0) translate(-2.000432014465332,0) translate(-2.000432014465332,0) translate(-2.000432014465332,0) translate(-2.000432014465332,0) translate(-2.000432014465332,0) translate(-2.000432014465332,0) translate(-2.000432014465332,0) translate(-2.000432014465332,0) translate(-2.000432014465332,0) translate(-2.000432014465332,0) translate(-2.000432014465332,0) translate(-2.000432014465332,0) translate(-2.000432014465332,0) translate(-2.000432014465332,0) translate(-2.000432014465332,0) translate(-2.000432014465332,0) translate(-2.000432014465332,0) translate(-2.000432014465332,0) translate(-2.000432014465332,0) translate(-2.000432014465332,0) translate(-2.000432014465332,0) translate(-2.000432014465332,0) translate(-2.000432014465332,0) translate(-2.000432014465332,0) translate(-2.000432014465332,0) translate(-2.000432014465332,0) translate(-2.000432014465332,0) translate(-2.000432014465332,0) translate(-2.000432014465332,0) translate(-2.000432014465332,0) translate(-2.000432014465332,0) translate(-2.000432014465332,0) translate(-2.000432014465332,0) translate(-2.000432014465332,0) translate(-2.000432014465332,0) translate(-2.000432014465332,0) translate(-2.000432014465332,0) translate(-2.000432014465332,0) translate(-2.000432014465332,0) translate(-2.000432014465332,0) translate(-2.000432014465332,0) translate(-2.000432014465332,0) translate(-2.000432014465332,0) translate(-2.000432014465332,0) translate(-2.000432014465332,0) translate(-2.000432014465332,0) translate(-2.000432014465332,0) translate(-2.000432014465332,0) translate(-2.000432014465332,0) translate(-2.000432014465332,0) translate(-2.000432014465332,0) translate(-2.000432014465332,0) translate(-2.000432014465332,0) translate(-2.000432014465332,0) translate(-2.000432014465332,0) translate(-2.000432014465332,0) translate(-2.000432014465332,0) translate(-2.000432014465332,0) translate(-2.000432014465332,0) translate(-2.000432014465332,0) translate(-2.000432014465332,0) translate(-2.000432014465332,0) translate(-2.000432014465332,0) translate(-2.000432014465332,0) translate(-2.000432014465332,0) translate(-2.000432014465332,0) translate(-2.000432014465332,0) translate(-2.000432014465332,0) translate(-2.000432014465332,0) translate(-2.000432014465332,0) translate(-2.000432014465332,0) translate(-2.000432014465332,0) translate(-2.000432014465332,0) translate(-2.000432014465332,0) translate(-2.000432014465332,0) translate(-2.000432014465332,0) translate(-2.000432014465332,0) translate(-2.000432014465332,0) translate(-2.000432014465332,0) translate(-2.000432014465332,0) translate(-2.000432014465332,0) translate(-2.000432014465332,0) translate(-2.000432014465332,0) translate(-2.000432014465332,0) translate(-2.000432014465332,0) translate(-2.000432014465332,0) translate(-2.000432014465332,0) translate(-2.000432014465332,0) translate(-2.000432014465332,0) translate(-2.000432014465332,0) translate(-2.000432014465332,0) translate(-2.000432014465332,0) translate(-2.000432014465332,0) translate(-2.000432014465332,0) translate(-2.000432014465332,0) translate(-2.000432014465332,0) translate(-2.000432014465332,0) translate(-2.000432014465332,0) translate(-2.000432014465332,0) translate(-2.000432014465332,0) translate(-2.000432014465332,0) translate(-2.000432014465332,0) translate(-2.000432014465332,0) translate(-2.000432014465332,0) translate(-2.000432014465332,0) translate(-2.000432014465332,0) translate(-2.000432014465332,0) translate(-2.000432014465332,0) translate(-2.000432014465332,0) translate(-2.000432014465332,0) translate(-2.000432014465332,0) translate(-2.000432014465332,0) translate(-2.000432014465332,0) translate(-2.000432014465332,0) translate(-2.000432014465332,0) translate(-2.000432014465332,0) translate(-2.000432014465332,0) translate(-2.000432014465332,0) translate(-2.000432014465332,0) translate(-2.000432014465332,0) translate(-2.000432014465332,0) translate(-2.000432014465332,0) translate(-2.000432014465332,0) translate(-2.000432014465332,0) translate(-2.000432014465332,0) translate(-2.000432014465332,0) translate(-2.000432014465332,0) translate(-2.000432014465332,0) translate(-2.000432014465332,0) translate(-2.000432014465332,0) translate(-2.000432014465332,0) translate(-2.000432014465332,0) translate(-2.000432014465332,0) translate(-2.000432014465332,0) translate(-2.000432014465332,0) translate(-2.000432014465332,0) translate(-2.000432014465332,0) translate(-2.000432014465332,0) translate(-2.000432014465332,0) translate(-2.000432014465332,0) translate(-2.000432014465332,0) translate(-2.000432014465332,0) translate(-2.000432014465332,0) translate(-2.000432014465332,0) translate(-2.000432014465332,0) translate(-2.000432014465332,0) translate(0,-1) translate(0,-1) translate(0,-1) translate(0,1) translate(0,1) translate(0,1) translate(0,1) translate(0,1) translate(0,1) translate(0,1) translate(0,1) translate(-2,12) ">
    <path d="m720.6,306.4l508.7,0l0,266l-508.7,0l0,-266z" id="SVGID_1_"/>
   </defs>
   <clipPath transform="translate(0,-2.000432014465332) translate(-390.0842590332031,4.000864505767822) translate(-2.000432014465332,0) translate(-2.000432014465332,0) translate(-2.000432014465332,0) translate(-2.000432014465332,0) translate(-2.000432014465332,0) translate(-2.000432014465332,0) translate(-2.000432014465332,0) translate(-2.000432014465332,0) translate(-2.000432014465332,0) translate(-2.000432014465332,0) translate(-2.000432014465332,0) translate(-2.000432014465332,0) translate(-2.000432014465332,0) translate(-2.000432014465332,0) translate(-2.000432014465332,0) translate(-2.000432014465332,0) translate(-2.000432014465332,0) translate(-2.000432014465332,0) translate(-2.000432014465332,0) translate(-2.000432014465332,0) translate(-2.000432014465332,0) translate(-2.000432014465332,0) translate(-2.000432014465332,0) translate(-2.000432014465332,0) translate(-2.000432014465332,0) translate(-2.000432014465332,0) translate(-2.000432014465332,0) translate(-2.000432014465332,0) translate(-2.000432014465332,0) translate(-2.000432014465332,0) translate(-2.000432014465332,0) translate(-2.000432014465332,0) translate(-2.000432014465332,0) translate(-2.000432014465332,0) translate(-2.000432014465332,0) translate(-2.000432014465332,0) translate(-2.000432014465332,0) translate(-2.000432014465332,0) translate(-2.000432014465332,0) translate(-2.000432014465332,0) translate(-2.000432014465332,0) translate(-2.000432014465332,0) translate(-2.000432014465332,0) translate(-2.000432014465332,0) translate(-2.000432014465332,0) translate(-2.000432014465332,0) translate(-2.000432014465332,0) translate(-2.000432014465332,0) translate(-2.000432014465332,0) translate(-2.000432014465332,0) translate(-2.000432014465332,0) translate(-2.000432014465332,0) translate(-2.000432014465332,0) translate(-2.000432014465332,0) translate(-2.000432014465332,0) translate(-2.000432014465332,0) translate(-2.000432014465332,0) translate(-2.000432014465332,0) translate(-2.000432014465332,0) translate(-2.000432014465332,0) translate(-2.000432014465332,0) translate(-2.000432014465332,0) translate(-2.000432014465332,0) translate(-2.000432014465332,0) translate(-2.000432014465332,0) translate(-2.000432014465332,0) translate(-2.000432014465332,0) translate(-2.000432014465332,0) translate(-2.000432014465332,0) translate(-2.000432014465332,0) translate(-2.000432014465332,0) translate(-2.000432014465332,0) translate(-2.000432014465332,0) translate(-2.000432014465332,0) translate(-2.000432014465332,0) translate(-2.000432014465332,0) translate(-2.000432014465332,0) translate(-2.000432014465332,0) translate(-2.000432014465332,0) translate(-2.000432014465332,0) translate(-2.000432014465332,0) translate(-2.000432014465332,0) translate(-2.000432014465332,0) translate(-2.000432014465332,0) translate(-2.000432014465332,0) translate(-2.000432014465332,0) translate(-2.000432014465332,0) translate(-2.000432014465332,0) translate(-2.000432014465332,0) translate(-2.000432014465332,0) translate(-2.000432014465332,0) translate(-2.000432014465332,0) translate(-2.000432014465332,0) translate(-2.000432014465332,0) translate(-2.000432014465332,0) translate(-2.000432014465332,0) translate(-2.000432014465332,0) translate(-2.000432014465332,0) translate(-2.000432014465332,0) translate(-2.000432014465332,0) translate(-2.000432014465332,0) translate(-2.000432014465332,0) translate(-2.000432014465332,0) translate(-2.000432014465332,0) translate(-2.000432014465332,0) translate(-2.000432014465332,0) translate(-2.000432014465332,0) translate(-2.000432014465332,0) translate(-2.000432014465332,0) translate(-2.000432014465332,0) translate(-2.000432014465332,0) translate(-2.000432014465332,0) translate(-2.000432014465332,0) translate(-2.000432014465332,0) translate(-2.000432014465332,0) translate(-2.000432014465332,0) translate(-2.000432014465332,0) translate(-2.000432014465332,0) translate(-2.000432014465332,0) translate(-2.000432014465332,0) translate(-2.000432014465332,0) translate(-2.000432014465332,0) translate(-2.000432014465332,0) translate(-2.000432014465332,0) translate(-2.000432014465332,0) translate(-2.000432014465332,0) translate(-2.000432014465332,0) translate(-2.000432014465332,0) translate(-2.000432014465332,0) translate(-2.000432014465332,0) translate(-2.000432014465332,0) translate(-2.000432014465332,0) translate(-2.000432014465332,0) translate(-2.000432014465332,0) translate(-2.000432014465332,0) translate(-2.000432014465332,0) translate(-2.000432014465332,0) translate(-2.000432014465332,0) translate(-2.000432014465332,0) translate(-2.000432014465332,0) translate(-2.000432014465332,0) translate(-2.000432014465332,0) translate(-2.000432014465332,0) translate(-2.000432014465332,0) translate(-2.000432014465332,0) translate(-2.000432014465332,0) translate(-2.000432014465332,0) translate(-2.000432014465332,0) translate(-2.000432014465332,0) translate(-2.000432014465332,0) translate(-2.000432014465332,0) translate(-2.000432014465332,0) translate(-2.000432014465332,0) translate(-2.000432014465332,0) translate(-2.000432014465332,0) translate(0,-1) translate(0,-1) translate(0,-1) translate(0,1) translate(0,1) translate(0,1) translate(0,1) translate(0,1) translate(0,1) translate(0,1) translate(0,1) translate(-2,12) " id="SVGID_2_">
    <use id="svg_3" xlink:href="#SVGID_1_"/>
   </clipPath>
   <path id="svg_4" d="m272.848779,325.400432l-254.4,115.7l254.4,150.3l254.3,-150.3l-254.3,-115.7z" class="st2"/>
  </g>
  <g id="svg_5" class="st3">
   <defs transform="translate(0,-2.000432014465332) translate(-390.0842590332031,4.000864505767822) translate(-2.000432014465332,0) translate(-2.000432014465332,0) translate(-2.000432014465332,0) translate(-2.000432014465332,0) translate(-2.000432014465332,0) translate(-2.000432014465332,0) translate(-2.000432014465332,0) translate(-2.000432014465332,0) translate(-2.000432014465332,0) translate(-2.000432014465332,0) translate(-2.000432014465332,0) translate(-2.000432014465332,0) translate(-2.000432014465332,0) translate(-2.000432014465332,0) translate(-2.000432014465332,0) translate(-2.000432014465332,0) translate(-2.000432014465332,0) translate(-2.000432014465332,0) translate(-2.000432014465332,0) translate(-2.000432014465332,0) translate(-2.000432014465332,0) translate(-2.000432014465332,0) translate(-2.000432014465332,0) translate(-2.000432014465332,0) translate(-2.000432014465332,0) translate(-2.000432014465332,0) translate(-2.000432014465332,0) translate(-2.000432014465332,0) translate(-2.000432014465332,0) translate(-2.000432014465332,0) translate(-2.000432014465332,0) translate(-2.000432014465332,0) translate(-2.000432014465332,0) translate(-2.000432014465332,0) translate(-2.000432014465332,0) translate(-2.000432014465332,0) translate(-2.000432014465332,0) translate(-2.000432014465332,0) translate(-2.000432014465332,0) translate(-2.000432014465332,0) translate(-2.000432014465332,0) translate(-2.000432014465332,0) translate(-2.000432014465332,0) translate(-2.000432014465332,0) translate(-2.000432014465332,0) translate(-2.000432014465332,0) translate(-2.000432014465332,0) translate(-2.000432014465332,0) translate(-2.000432014465332,0) translate(-2.000432014465332,0) translate(-2.000432014465332,0) translate(-2.000432014465332,0) translate(-2.000432014465332,0) translate(-2.000432014465332,0) translate(-2.000432014465332,0) translate(-2.000432014465332,0) translate(-2.000432014465332,0) translate(-2.000432014465332,0) translate(-2.000432014465332,0) translate(-2.000432014465332,0) translate(-2.000432014465332,0) translate(-2.000432014465332,0) translate(-2.000432014465332,0) translate(-2.000432014465332,0) translate(-2.000432014465332,0) translate(-2.000432014465332,0) translate(-2.000432014465332,0) translate(-2.000432014465332,0) translate(-2.000432014465332,0) translate(-2.000432014465332,0) translate(-2.000432014465332,0) translate(-2.000432014465332,0) translate(-2.000432014465332,0) translate(-2.000432014465332,0) translate(-2.000432014465332,0) translate(-2.000432014465332,0) translate(-2.000432014465332,0) translate(-2.000432014465332,0) translate(-2.000432014465332,0) translate(-2.000432014465332,0) translate(-2.000432014465332,0) translate(-2.000432014465332,0) translate(-2.000432014465332,0) translate(-2.000432014465332,0) translate(-2.000432014465332,0) translate(-2.000432014465332,0) translate(-2.000432014465332,0) translate(-2.000432014465332,0) translate(-2.000432014465332,0) translate(-2.000432014465332,0) translate(-2.000432014465332,0) translate(-2.000432014465332,0) translate(-2.000432014465332,0) translate(-2.000432014465332,0) translate(-2.000432014465332,0) translate(-2.000432014465332,0) translate(-2.000432014465332,0) translate(-2.000432014465332,0) translate(-2.000432014465332,0) translate(-2.000432014465332,0) translate(-2.000432014465332,0) translate(-2.000432014465332,0) translate(-2.000432014465332,0) translate(-2.000432014465332,0) translate(-2.000432014465332,0) translate(-2.000432014465332,0) translate(-2.000432014465332,0) translate(-2.000432014465332,0) translate(-2.000432014465332,0) translate(-2.000432014465332,0) translate(-2.000432014465332,0) translate(-2.000432014465332,0) translate(-2.000432014465332,0) translate(-2.000432014465332,0) translate(-2.000432014465332,0) translate(-2.000432014465332,0) translate(-2.000432014465332,0) translate(-2.000432014465332,0) translate(-2.000432014465332,0) translate(-2.000432014465332,0) translate(-2.000432014465332,0) translate(-2.000432014465332,0) translate(-2.000432014465332,0) translate(-2.000432014465332,0) translate(-2.000432014465332,0) translate(-2.000432014465332,0) translate(-2.000432014465332,0) translate(-2.000432014465332,0) translate(-2.000432014465332,0) translate(-2.000432014465332,0) translate(-2.000432014465332,0) translate(-2.000432014465332,0) translate(-2.000432014465332,0) translate(-2.000432014465332,0) translate(-2.000432014465332,0) translate(-2.000432014465332,0) translate(-2.000432014465332,0) translate(-2.000432014465332,0) translate(-2.000432014465332,0) translate(-2.000432014465332,0) translate(-2.000432014465332,0) translate(-2.000432014465332,0) translate(-2.000432014465332,0) translate(-2.000432014465332,0) translate(-2.000432014465332,0) translate(-2.000432014465332,0) translate(-2.000432014465332,0) translate(-2.000432014465332,0) translate(-2.000432014465332,0) translate(-2.000432014465332,0) translate(-2.000432014465332,0) translate(-2.000432014465332,0) translate(-2.000432014465332,0) translate(-2.000432014465332,0) translate(-2.000432014465332,0) translate(0,-1) translate(0,-1) translate(0,-1) translate(0,1) translate(0,1) translate(0,1) translate(0,1) translate(0,1) translate(0,1) translate(0,1) translate(0,1) translate(-2,12) translate(0,1) ">
    <path d="m720.6,0l254.4,0l0,572.4l-254.4,0l0,-572.4z" id="SVGID_3_"/>
   </defs>
   <clipPath transform="translate(0,-2.000432014465332) translate(-390.0842590332031,4.000864505767822) translate(-2.000432014465332,0) translate(-2.000432014465332,0) translate(-2.000432014465332,0) translate(-2.000432014465332,0) translate(-2.000432014465332,0) translate(-2.000432014465332,0) translate(-2.000432014465332,0) translate(-2.000432014465332,0) translate(-2.000432014465332,0) translate(-2.000432014465332,0) translate(-2.000432014465332,0) translate(-2.000432014465332,0) translate(-2.000432014465332,0) translate(-2.000432014465332,0) translate(-2.000432014465332,0) translate(-2.000432014465332,0) translate(-2.000432014465332,0) translate(-2.000432014465332,0) translate(-2.000432014465332,0) translate(-2.000432014465332,0) translate(-2.000432014465332,0) translate(-2.000432014465332,0) translate(-2.000432014465332,0) translate(-2.000432014465332,0) translate(-2.000432014465332,0) translate(-2.000432014465332,0) translate(-2.000432014465332,0) translate(-2.000432014465332,0) translate(-2.000432014465332,0) translate(-2.000432014465332,0) translate(-2.000432014465332,0) translate(-2.000432014465332,0) translate(-2.000432014465332,0) translate(-2.000432014465332,0) translate(-2.000432014465332,0) translate(-2.000432014465332,0) translate(-2.000432014465332,0) translate(-2.000432014465332,0) translate(-2.000432014465332,0) translate(-2.000432014465332,0) translate(-2.000432014465332,0) translate(-2.000432014465332,0) translate(-2.000432014465332,0) translate(-2.000432014465332,0) translate(-2.000432014465332,0) translate(-2.000432014465332,0) translate(-2.000432014465332,0) translate(-2.000432014465332,0) translate(-2.000432014465332,0) translate(-2.000432014465332,0) translate(-2.000432014465332,0) translate(-2.000432014465332,0) translate(-2.000432014465332,0) translate(-2.000432014465332,0) translate(-2.000432014465332,0) translate(-2.000432014465332,0) translate(-2.000432014465332,0) translate(-2.000432014465332,0) translate(-2.000432014465332,0) translate(-2.000432014465332,0) translate(-2.000432014465332,0) translate(-2.000432014465332,0) translate(-2.000432014465332,0) translate(-2.000432014465332,0) translate(-2.000432014465332,0) translate(-2.000432014465332,0) translate(-2.000432014465332,0) translate(-2.000432014465332,0) translate(-2.000432014465332,0) translate(-2.000432014465332,0) translate(-2.000432014465332,0) translate(-2.000432014465332,0) translate(-2.000432014465332,0) translate(-2.000432014465332,0) translate(-2.000432014465332,0) translate(-2.000432014465332,0) translate(-2.000432014465332,0) translate(-2.000432014465332,0) translate(-2.000432014465332,0) translate(-2.000432014465332,0) translate(-2.000432014465332,0) translate(-2.000432014465332,0) translate(-2.000432014465332,0) translate(-2.000432014465332,0) translate(-2.000432014465332,0) translate(-2.000432014465332,0) translate(-2.000432014465332,0) translate(-2.000432014465332,0) translate(-2.000432014465332,0) translate(-2.000432014465332,0) translate(-2.000432014465332,0) translate(-2.000432014465332,0) translate(-2.000432014465332,0) translate(-2.000432014465332,0) translate(-2.000432014465332,0) translate(-2.000432014465332,0) translate(-2.000432014465332,0) translate(-2.000432014465332,0) translate(-2.000432014465332,0) translate(-2.000432014465332,0) translate(-2.000432014465332,0) translate(-2.000432014465332,0) translate(-2.000432014465332,0) translate(-2.000432014465332,0) translate(-2.000432014465332,0) translate(-2.000432014465332,0) translate(-2.000432014465332,0) translate(-2.000432014465332,0) translate(-2.000432014465332,0) translate(-2.000432014465332,0) translate(-2.000432014465332,0) translate(-2.000432014465332,0) translate(-2.000432014465332,0) translate(-2.000432014465332,0) translate(-2.000432014465332,0) translate(-2.000432014465332,0) translate(-2.000432014465332,0) translate(-2.000432014465332,0) translate(-2.000432014465332,0) translate(-2.000432014465332,0) translate(-2.000432014465332,0) translate(-2.000432014465332,0) translate(-2.000432014465332,0) translate(-2.000432014465332,0) translate(-2.000432014465332,0) translate(-2.000432014465332,0) translate(-2.000432014465332,0) translate(-2.000432014465332,0) translate(-2.000432014465332,0) translate(-2.000432014465332,0) translate(-2.000432014465332,0) translate(-2.000432014465332,0) translate(-2.000432014465332,0) translate(-2.000432014465332,0) translate(-2.000432014465332,0) translate(-2.000432014465332,0) translate(-2.000432014465332,0) translate(-2.000432014465332,0) translate(-2.000432014465332,0) translate(-2.000432014465332,0) translate(-2.000432014465332,0) translate(-2.000432014465332,0) translate(-2.000432014465332,0) translate(-2.000432014465332,0) translate(-2.000432014465332,0) translate(-2.000432014465332,0) translate(-2.000432014465332,0) translate(-2.000432014465332,0) translate(-2.000432014465332,0) translate(-2.000432014465332,0) translate(-2.000432014465332,0) translate(-2.000432014465332,0) translate(-2.000432014465332,0) translate(-2.000432014465332,0) translate(-2.000432014465332,0) translate(0,-1) translate(0,-1) translate(0,-1) translate(0,1) translate(0,1) translate(0,1) translate(0,1) translate(0,1) translate(0,1) translate(0,1) translate(0,1) translate(-2,12) translate(0,1) " id="SVGID_4_">
    <use id="svg_6" xlink:href="#SVGID_3_"/>
   </clipPath>
   <path id="svg_7" d="m18.448779,442.100432l254.4,150.3l0,-572.4l-254.4,422.1z" class="st4"/>
  </g>
  <g id="svg_8" class="st5">
   <defs transform="translate(0,-2.000432014465332) translate(-390.0842590332031,4.000864505767822) translate(-2.000432014465332,0) translate(-2.000432014465332,0) translate(-2.000432014465332,0) translate(-2.000432014465332,0) translate(-2.000432014465332,0) translate(-2.000432014465332,0) translate(-2.000432014465332,0) translate(-2.000432014465332,0) translate(-2.000432014465332,0) translate(-2.000432014465332,0) translate(-2.000432014465332,0) translate(-2.000432014465332,0) translate(-2.000432014465332,0) translate(-2.000432014465332,0) translate(-2.000432014465332,0) translate(-2.000432014465332,0) translate(-2.000432014465332,0) translate(-2.000432014465332,0) translate(-2.000432014465332,0) translate(-2.000432014465332,0) translate(-2.000432014465332,0) translate(-2.000432014465332,0) translate(-2.000432014465332,0) translate(-2.000432014465332,0) translate(-2.000432014465332,0) translate(-2.000432014465332,0) translate(-2.000432014465332,0) translate(-2.000432014465332,0) translate(-2.000432014465332,0) translate(-2.000432014465332,0) translate(-2.000432014465332,0) translate(-2.000432014465332,0) translate(-2.000432014465332,0) translate(-2.000432014465332,0) translate(-2.000432014465332,0) translate(-2.000432014465332,0) translate(-2.000432014465332,0) translate(-2.000432014465332,0) translate(-2.000432014465332,0) translate(-2.000432014465332,0) translate(-2.000432014465332,0) translate(-2.000432014465332,0) translate(-2.000432014465332,0) translate(-2.000432014465332,0) translate(-2.000432014465332,0) translate(-2.000432014465332,0) translate(-2.000432014465332,0) translate(-2.000432014465332,0) translate(-2.000432014465332,0) translate(-2.000432014465332,0) translate(-2.000432014465332,0) translate(-2.000432014465332,0) translate(-2.000432014465332,0) translate(-2.000432014465332,0) translate(-2.000432014465332,0) translate(-2.000432014465332,0) translate(-2.000432014465332,0) translate(-2.000432014465332,0) translate(-2.000432014465332,0) translate(-2.000432014465332,0) translate(-2.000432014465332,0) translate(-2.000432014465332,0) translate(-2.000432014465332,0) translate(-2.000432014465332,0) translate(-2.000432014465332,0) translate(-2.000432014465332,0) translate(-2.000432014465332,0) translate(-2.000432014465332,0) translate(-2.000432014465332,0) translate(-2.000432014465332,0) translate(-2.000432014465332,0) translate(-2.000432014465332,0) translate(-2.000432014465332,0) translate(-2.000432014465332,0) translate(-2.000432014465332,0) translate(-2.000432014465332,0) translate(-2.000432014465332,0) translate(-2.000432014465332,0) translate(-2.000432014465332,0) translate(-2.000432014465332,0) translate(-2.000432014465332,0) translate(-2.000432014465332,0) translate(-2.000432014465332,0) translate(-2.000432014465332,0) translate(-2.000432014465332,0) translate(-2.000432014465332,0) translate(-2.000432014465332,0) translate(-2.000432014465332,0) translate(-2.000432014465332,0) translate(-2.000432014465332,0) translate(-2.000432014465332,0) translate(-2.000432014465332,0) translate(-2.000432014465332,0) translate(-2.000432014465332,0) translate(-2.000432014465332,0) translate(-2.000432014465332,0) translate(-2.000432014465332,0) translate(-2.000432014465332,0) translate(-2.000432014465332,0) translate(-2.000432014465332,0) translate(-2.000432014465332,0) translate(-2.000432014465332,0) translate(-2.000432014465332,0) translate(-2.000432014465332,0) translate(-2.000432014465332,0) translate(-2.000432014465332,0) translate(-2.000432014465332,0) translate(-2.000432014465332,0) translate(-2.000432014465332,0) translate(-2.000432014465332,0) translate(-2.000432014465332,0) translate(-2.000432014465332,0) translate(-2.000432014465332,0) translate(-2.000432014465332,0) translate(-2.000432014465332,0) translate(-2.000432014465332,0) translate(-2.000432014465332,0) translate(-2.000432014465332,0) translate(-2.000432014465332,0) translate(-2.000432014465332,0) translate(-2.000432014465332,0) translate(-2.000432014465332,0) translate(-2.000432014465332,0) translate(-2.000432014465332,0) translate(-2.000432014465332,0) translate(-2.000432014465332,0) translate(-2.000432014465332,0) translate(-2.000432014465332,0) translate(-2.000432014465332,0) translate(-2.000432014465332,0) translate(-2.000432014465332,0) translate(-2.000432014465332,0) translate(-2.000432014465332,0) translate(-2.000432014465332,0) translate(-2.000432014465332,0) translate(-2.000432014465332,0) translate(-2.000432014465332,0) translate(-2.000432014465332,0) translate(-2.000432014465332,0) translate(-2.000432014465332,0) translate(-2.000432014465332,0) translate(-2.000432014465332,0) translate(-2.000432014465332,0) translate(-2.000432014465332,0) translate(-2.000432014465332,0) translate(-2.000432014465332,0) translate(-2.000432014465332,0) translate(-2.000432014465332,0) translate(-2.000432014465332,0) translate(-2.000432014465332,0) translate(-2.000432014465332,0) translate(-2.000432014465332,0) translate(-2.000432014465332,0) translate(-2.000432014465332,0) translate(-2.000432014465332,0) translate(0,-1) translate(0,-1) translate(0,-1) translate(0,1) translate(0,1) translate(0,1) translate(0,1) translate(0,1) translate(0,1) translate(0,1) translate(0,1) translate(-2,12) translate(1,0) translate(0,1) ">
    <path d="m975,0l254.4,0l0,572.4l-254.4,0l0,-572.4z" id="SVGID_5_"/>
   </defs>
   <clipPath transform="translate(0,-2.000432014465332) translate(-390.0842590332031,4.000864505767822) translate(-2.000432014465332,0) translate(-2.000432014465332,0) translate(-2.000432014465332,0) translate(-2.000432014465332,0) translate(-2.000432014465332,0) translate(-2.000432014465332,0) translate(-2.000432014465332,0) translate(-2.000432014465332,0) translate(-2.000432014465332,0) translate(-2.000432014465332,0) translate(-2.000432014465332,0) translate(-2.000432014465332,0) translate(-2.000432014465332,0) translate(-2.000432014465332,0) translate(-2.000432014465332,0) translate(-2.000432014465332,0) translate(-2.000432014465332,0) translate(-2.000432014465332,0) translate(-2.000432014465332,0) translate(-2.000432014465332,0) translate(-2.000432014465332,0) translate(-2.000432014465332,0) translate(-2.000432014465332,0) translate(-2.000432014465332,0) translate(-2.000432014465332,0) translate(-2.000432014465332,0) translate(-2.000432014465332,0) translate(-2.000432014465332,0) translate(-2.000432014465332,0) translate(-2.000432014465332,0) translate(-2.000432014465332,0) translate(-2.000432014465332,0) translate(-2.000432014465332,0) translate(-2.000432014465332,0) translate(-2.000432014465332,0) translate(-2.000432014465332,0) translate(-2.000432014465332,0) translate(-2.000432014465332,0) translate(-2.000432014465332,0) translate(-2.000432014465332,0) translate(-2.000432014465332,0) translate(-2.000432014465332,0) translate(-2.000432014465332,0) translate(-2.000432014465332,0) translate(-2.000432014465332,0) translate(-2.000432014465332,0) translate(-2.000432014465332,0) translate(-2.000432014465332,0) translate(-2.000432014465332,0) translate(-2.000432014465332,0) translate(-2.000432014465332,0) translate(-2.000432014465332,0) translate(-2.000432014465332,0) translate(-2.000432014465332,0) translate(-2.000432014465332,0) translate(-2.000432014465332,0) translate(-2.000432014465332,0) translate(-2.000432014465332,0) translate(-2.000432014465332,0) translate(-2.000432014465332,0) translate(-2.000432014465332,0) translate(-2.000432014465332,0) translate(-2.000432014465332,0) translate(-2.000432014465332,0) translate(-2.000432014465332,0) translate(-2.000432014465332,0) translate(-2.000432014465332,0) translate(-2.000432014465332,0) translate(-2.000432014465332,0) translate(-2.000432014465332,0) translate(-2.000432014465332,0) translate(-2.000432014465332,0) translate(-2.000432014465332,0) translate(-2.000432014465332,0) translate(-2.000432014465332,0) translate(-2.000432014465332,0) translate(-2.000432014465332,0) translate(-2.000432014465332,0) translate(-2.000432014465332,0) translate(-2.000432014465332,0) translate(-2.000432014465332,0) translate(-2.000432014465332,0) translate(-2.000432014465332,0) translate(-2.000432014465332,0) translate(-2.000432014465332,0) translate(-2.000432014465332,0) translate(-2.000432014465332,0) translate(-2.000432014465332,0) translate(-2.000432014465332,0) translate(-2.000432014465332,0) translate(-2.000432014465332,0) translate(-2.000432014465332,0) translate(-2.000432014465332,0) translate(-2.000432014465332,0) translate(-2.000432014465332,0) translate(-2.000432014465332,0) translate(-2.000432014465332,0) translate(-2.000432014465332,0) translate(-2.000432014465332,0) translate(-2.000432014465332,0) translate(-2.000432014465332,0) translate(-2.000432014465332,0) translate(-2.000432014465332,0) translate(-2.000432014465332,0) translate(-2.000432014465332,0) translate(-2.000432014465332,0) translate(-2.000432014465332,0) translate(-2.000432014465332,0) translate(-2.000432014465332,0) translate(-2.000432014465332,0) translate(-2.000432014465332,0) translate(-2.000432014465332,0) translate(-2.000432014465332,0) translate(-2.000432014465332,0) translate(-2.000432014465332,0) translate(-2.000432014465332,0) translate(-2.000432014465332,0) translate(-2.000432014465332,0) translate(-2.000432014465332,0) translate(-2.000432014465332,0) translate(-2.000432014465332,0) translate(-2.000432014465332,0) translate(-2.000432014465332,0) translate(-2.000432014465332,0) translate(-2.000432014465332,0) translate(-2.000432014465332,0) translate(-2.000432014465332,0) translate(-2.000432014465332,0) translate(-2.000432014465332,0) translate(-2.000432014465332,0) translate(-2.000432014465332,0) translate(-2.000432014465332,0) translate(-2.000432014465332,0) translate(-2.000432014465332,0) translate(-2.000432014465332,0) translate(-2.000432014465332,0) translate(-2.000432014465332,0) translate(-2.000432014465332,0) translate(-2.000432014465332,0) translate(-2.000432014465332,0) translate(-2.000432014465332,0) translate(-2.000432014465332,0) translate(-2.000432014465332,0) translate(-2.000432014465332,0) translate(-2.000432014465332,0) translate(-2.000432014465332,0) translate(-2.000432014465332,0) translate(-2.000432014465332,0) translate(-2.000432014465332,0) translate(-2.000432014465332,0) translate(-2.000432014465332,0) translate(-2.000432014465332,0) translate(-2.000432014465332,0) translate(-2.000432014465332,0) translate(-2.000432014465332,0) translate(0,-1) translate(0,-1) translate(0,-1) translate(0,1) translate(0,1) translate(0,1) translate(0,1) translate(0,1) translate(0,1) translate(0,1) translate(0,1) translate(-2,12) translate(1,0) translate(0,1) " id="SVGID_6_">
    <use id="svg_9" xlink:href="#SVGID_5_"/>
   </clipPath>
   <path id="svg_10" d="m273.848779,20.000432l0,572.4l254.3,-150.3l-254.3,-422.1z" class="st6"/>
  </g>
  <g id="svg_11" class="st3">
   <defs transform="translate(0,-2.000432014465332) translate(-390.0842590332031,4.000864505767822) translate(-2.000432014465332,0) translate(-2.000432014465332,0) translate(-2.000432014465332,0) translate(-2.000432014465332,0) translate(-2.000432014465332,0) translate(-2.000432014465332,0) translate(-2.000432014465332,0) translate(-2.000432014465332,0) translate(-2.000432014465332,0) translate(-2.000432014465332,0) translate(-2.000432014465332,0) translate(-2.000432014465332,0) translate(-2.000432014465332,0) translate(-2.000432014465332,0) translate(-2.000432014465332,0) translate(-2.000432014465332,0) translate(-2.000432014465332,0) translate(-2.000432014465332,0) translate(-2.000432014465332,0) translate(-2.000432014465332,0) translate(-2.000432014465332,0) translate(-2.000432014465332,0) translate(-2.000432014465332,0) translate(-2.000432014465332,0) translate(-2.000432014465332,0) translate(-2.000432014465332,0) translate(-2.000432014465332,0) translate(-2.000432014465332,0) translate(-2.000432014465332,0) translate(-2.000432014465332,0) translate(-2.000432014465332,0) translate(-2.000432014465332,0) translate(-2.000432014465332,0) translate(-2.000432014465332,0) translate(-2.000432014465332,0) translate(-2.000432014465332,0) translate(-2.000432014465332,0) translate(-2.000432014465332,0) translate(-2.000432014465332,0) translate(-2.000432014465332,0) translate(-2.000432014465332,0) translate(-2.000432014465332,0) translate(-2.000432014465332,0) translate(-2.000432014465332,0) translate(-2.000432014465332,0) translate(-2.000432014465332,0) translate(-2.000432014465332,0) translate(-2.000432014465332,0) translate(-2.000432014465332,0) translate(-2.000432014465332,0) translate(-2.000432014465332,0) translate(-2.000432014465332,0) translate(-2.000432014465332,0) translate(-2.000432014465332,0) translate(-2.000432014465332,0) translate(-2.000432014465332,0) translate(-2.000432014465332,0) translate(-2.000432014465332,0) translate(-2.000432014465332,0) translate(-2.000432014465332,0) translate(-2.000432014465332,0) translate(-2.000432014465332,0) translate(-2.000432014465332,0) translate(-2.000432014465332,0) translate(-2.000432014465332,0) translate(-2.000432014465332,0) translate(-2.000432014465332,0) translate(-2.000432014465332,0) translate(-2.000432014465332,0) translate(-2.000432014465332,0) translate(-2.000432014465332,0) translate(-2.000432014465332,0) translate(-2.000432014465332,0) translate(-2.000432014465332,0) translate(-2.000432014465332,0) translate(-2.000432014465332,0) translate(-2.000432014465332,0) translate(-2.000432014465332,0) translate(-2.000432014465332,0) translate(-2.000432014465332,0) translate(-2.000432014465332,0) translate(-2.000432014465332,0) translate(-2.000432014465332,0) translate(-2.000432014465332,0) translate(-2.000432014465332,0) translate(-2.000432014465332,0) translate(-2.000432014465332,0) translate(-2.000432014465332,0) translate(-2.000432014465332,0) translate(-2.000432014465332,0) translate(-2.000432014465332,0) translate(-2.000432014465332,0) translate(-2.000432014465332,0) translate(-2.000432014465332,0) translate(-2.000432014465332,0) translate(-2.000432014465332,0) translate(-2.000432014465332,0) translate(-2.000432014465332,0) translate(-2.000432014465332,0) translate(-2.000432014465332,0) translate(-2.000432014465332,0) translate(-2.000432014465332,0) translate(-2.000432014465332,0) translate(-2.000432014465332,0) translate(-2.000432014465332,0) translate(-2.000432014465332,0) translate(-2.000432014465332,0) translate(-2.000432014465332,0) translate(-2.000432014465332,0) translate(-2.000432014465332,0) translate(-2.000432014465332,0) translate(-2.000432014465332,0) translate(-2.000432014465332,0) translate(-2.000432014465332,0) translate(-2.000432014465332,0) translate(-2.000432014465332,0) translate(-2.000432014465332,0) translate(-2.000432014465332,0) translate(-2.000432014465332,0) translate(-2.000432014465332,0) translate(-2.000432014465332,0) translate(-2.000432014465332,0) translate(-2.000432014465332,0) translate(-2.000432014465332,0) translate(-2.000432014465332,0) translate(-2.000432014465332,0) translate(-2.000432014465332,0) translate(-2.000432014465332,0) translate(-2.000432014465332,0) translate(-2.000432014465332,0) translate(-2.000432014465332,0) translate(-2.000432014465332,0) translate(-2.000432014465332,0) translate(-2.000432014465332,0) translate(-2.000432014465332,0) translate(-2.000432014465332,0) translate(-2.000432014465332,0) translate(-2.000432014465332,0) translate(-2.000432014465332,0) translate(-2.000432014465332,0) translate(-2.000432014465332,0) translate(-2.000432014465332,0) translate(-2.000432014465332,0) translate(-2.000432014465332,0) translate(-2.000432014465332,0) translate(-2.000432014465332,0) translate(-2.000432014465332,0) translate(-2.000432014465332,0) translate(-2.000432014465332,0) translate(-2.000432014465332,0) translate(-2.000432014465332,0) translate(-2.000432014465332,0) translate(-2.000432014465332,0) translate(-2.000432014465332,0) translate(-2.000432014465332,0) translate(0,-1) translate(0,-1) translate(0,-1) translate(0,1) translate(0,1) translate(0,1) translate(0,1) translate(0,1) translate(0,1) translate(0,1) translate(0,1) translate(-2,12) ">
    <path d="m720.6,470.3l254.4,0l0,358.4l-254.4,0l0,-358.4z" id="SVGID_7_"/>
   </defs>
   <clipPath transform="translate(0,-2.000432014465332) translate(-390.0842590332031,4.000864505767822) translate(-2.000432014465332,0) translate(-2.000432014465332,0) translate(-2.000432014465332,0) translate(-2.000432014465332,0) translate(-2.000432014465332,0) translate(-2.000432014465332,0) translate(-2.000432014465332,0) translate(-2.000432014465332,0) translate(-2.000432014465332,0) translate(-2.000432014465332,0) translate(-2.000432014465332,0) translate(-2.000432014465332,0) translate(-2.000432014465332,0) translate(-2.000432014465332,0) translate(-2.000432014465332,0) translate(-2.000432014465332,0) translate(-2.000432014465332,0) translate(-2.000432014465332,0) translate(-2.000432014465332,0) translate(-2.000432014465332,0) translate(-2.000432014465332,0) translate(-2.000432014465332,0) translate(-2.000432014465332,0) translate(-2.000432014465332,0) translate(-2.000432014465332,0) translate(-2.000432014465332,0) translate(-2.000432014465332,0) translate(-2.000432014465332,0) translate(-2.000432014465332,0) translate(-2.000432014465332,0) translate(-2.000432014465332,0) translate(-2.000432014465332,0) translate(-2.000432014465332,0) translate(-2.000432014465332,0) translate(-2.000432014465332,0) translate(-2.000432014465332,0) translate(-2.000432014465332,0) translate(-2.000432014465332,0) translate(-2.000432014465332,0) translate(-2.000432014465332,0) translate(-2.000432014465332,0) translate(-2.000432014465332,0) translate(-2.000432014465332,0) translate(-2.000432014465332,0) translate(-2.000432014465332,0) translate(-2.000432014465332,0) translate(-2.000432014465332,0) translate(-2.000432014465332,0) translate(-2.000432014465332,0) translate(-2.000432014465332,0) translate(-2.000432014465332,0) translate(-2.000432014465332,0) translate(-2.000432014465332,0) translate(-2.000432014465332,0) translate(-2.000432014465332,0) translate(-2.000432014465332,0) translate(-2.000432014465332,0) translate(-2.000432014465332,0) translate(-2.000432014465332,0) translate(-2.000432014465332,0) translate(-2.000432014465332,0) translate(-2.000432014465332,0) translate(-2.000432014465332,0) translate(-2.000432014465332,0) translate(-2.000432014465332,0) translate(-2.000432014465332,0) translate(-2.000432014465332,0) translate(-2.000432014465332,0) translate(-2.000432014465332,0) translate(-2.000432014465332,0) translate(-2.000432014465332,0) translate(-2.000432014465332,0) translate(-2.000432014465332,0) translate(-2.000432014465332,0) translate(-2.000432014465332,0) translate(-2.000432014465332,0) translate(-2.000432014465332,0) translate(-2.000432014465332,0) translate(-2.000432014465332,0) translate(-2.000432014465332,0) translate(-2.000432014465332,0) translate(-2.000432014465332,0) translate(-2.000432014465332,0) translate(-2.000432014465332,0) translate(-2.000432014465332,0) translate(-2.000432014465332,0) translate(-2.000432014465332,0) translate(-2.000432014465332,0) translate(-2.000432014465332,0) translate(-2.000432014465332,0) translate(-2.000432014465332,0) translate(-2.000432014465332,0) translate(-2.000432014465332,0) translate(-2.000432014465332,0) translate(-2.000432014465332,0) translate(-2.000432014465332,0) translate(-2.000432014465332,0) translate(-2.000432014465332,0) translate(-2.000432014465332,0) translate(-2.000432014465332,0) translate(-2.000432014465332,0) translate(-2.000432014465332,0) translate(-2.000432014465332,0) translate(-2.000432014465332,0) translate(-2.000432014465332,0) translate(-2.000432014465332,0) translate(-2.000432014465332,0) translate(-2.000432014465332,0) translate(-2.000432014465332,0) translate(-2.000432014465332,0) translate(-2.000432014465332,0) translate(-2.000432014465332,0) translate(-2.000432014465332,0) translate(-2.000432014465332,0) translate(-2.000432014465332,0) translate(-2.000432014465332,0) translate(-2.000432014465332,0) translate(-2.000432014465332,0) translate(-2.000432014465332,0) translate(-2.000432014465332,0) translate(-2.000432014465332,0) translate(-2.000432014465332,0) translate(-2.000432014465332,0) translate(-2.000432014465332,0) translate(-2.000432014465332,0) translate(-2.000432014465332,0) translate(-2.000432014465332,0) translate(-2.000432014465332,0) translate(-2.000432014465332,0) translate(-2.000432014465332,0) translate(-2.000432014465332,0) translate(-2.000432014465332,0) translate(-2.000432014465332,0) translate(-2.000432014465332,0) translate(-2.000432014465332,0) translate(-2.000432014465332,0) translate(-2.000432014465332,0) translate(-2.000432014465332,0) translate(-2.000432014465332,0) translate(-2.000432014465332,0) translate(-2.000432014465332,0) translate(-2.000432014465332,0) translate(-2.000432014465332,0) translate(-2.000432014465332,0) translate(-2.000432014465332,0) translate(-2.000432014465332,0) translate(-2.000432014465332,0) translate(-2.000432014465332,0) translate(-2.000432014465332,0) translate(-2.000432014465332,0) translate(-2.000432014465332,0) translate(-2.000432014465332,0) translate(-2.000432014465332,0) translate(-2.000432014465332,0) translate(-2.000432014465332,0) translate(0,-1) translate(0,-1) translate(0,-1) translate(0,1) translate(0,1) translate(0,1) translate(0,1) translate(0,1) translate(0,1) translate(0,1) translate(0,1) translate(-2,12) " id="SVGID_8_">
    <use id="svg_12" xlink:href="#SVGID_7_"/>
   </clipPath>
   <path id="svg_13" d="m18.448779,489.300432l254.4,358.4l0,-208.1l-254.4,-150.3z" class="st7"/>
  </g>
  <g id="svg_14" class="st5">
   <defs transform="translate(0,-2.000432014465332) translate(-390.0842590332031,4.000864505767822) translate(-2.000432014465332,0) translate(-2.000432014465332,0) translate(-2.000432014465332,0) translate(-2.000432014465332,0) translate(-2.000432014465332,0) translate(-2.000432014465332,0) translate(-2.000432014465332,0) translate(-2.000432014465332,0) translate(-2.000432014465332,0) translate(-2.000432014465332,0) translate(-2.000432014465332,0) translate(-2.000432014465332,0) translate(-2.000432014465332,0) translate(-2.000432014465332,0) translate(-2.000432014465332,0) translate(-2.000432014465332,0) translate(-2.000432014465332,0) translate(-2.000432014465332,0) translate(-2.000432014465332,0) translate(-2.000432014465332,0) translate(-2.000432014465332,0) translate(-2.000432014465332,0) translate(-2.000432014465332,0) translate(-2.000432014465332,0) translate(-2.000432014465332,0) translate(-2.000432014465332,0) translate(-2.000432014465332,0) translate(-2.000432014465332,0) translate(-2.000432014465332,0) translate(-2.000432014465332,0) translate(-2.000432014465332,0) translate(-2.000432014465332,0) translate(-2.000432014465332,0) translate(-2.000432014465332,0) translate(-2.000432014465332,0) translate(-2.000432014465332,0) translate(-2.000432014465332,0) translate(-2.000432014465332,0) translate(-2.000432014465332,0) translate(-2.000432014465332,0) translate(-2.000432014465332,0) translate(-2.000432014465332,0) translate(-2.000432014465332,0) translate(-2.000432014465332,0) translate(-2.000432014465332,0) translate(-2.000432014465332,0) translate(-2.000432014465332,0) translate(-2.000432014465332,0) translate(-2.000432014465332,0) translate(-2.000432014465332,0) translate(-2.000432014465332,0) translate(-2.000432014465332,0) translate(-2.000432014465332,0) translate(-2.000432014465332,0) translate(-2.000432014465332,0) translate(-2.000432014465332,0) translate(-2.000432014465332,0) translate(-2.000432014465332,0) translate(-2.000432014465332,0) translate(-2.000432014465332,0) translate(-2.000432014465332,0) translate(-2.000432014465332,0) translate(-2.000432014465332,0) translate(-2.000432014465332,0) translate(-2.000432014465332,0) translate(-2.000432014465332,0) translate(-2.000432014465332,0) translate(-2.000432014465332,0) translate(-2.000432014465332,0) translate(-2.000432014465332,0) translate(-2.000432014465332,0) translate(-2.000432014465332,0) translate(-2.000432014465332,0) translate(-2.000432014465332,0) translate(-2.000432014465332,0) translate(-2.000432014465332,0) translate(-2.000432014465332,0) translate(-2.000432014465332,0) translate(-2.000432014465332,0) translate(-2.000432014465332,0) translate(-2.000432014465332,0) translate(-2.000432014465332,0) translate(-2.000432014465332,0) translate(-2.000432014465332,0) translate(-2.000432014465332,0) translate(-2.000432014465332,0) translate(-2.000432014465332,0) translate(-2.000432014465332,0) translate(-2.000432014465332,0) translate(-2.000432014465332,0) translate(-2.000432014465332,0) translate(-2.000432014465332,0) translate(-2.000432014465332,0) translate(-2.000432014465332,0) translate(-2.000432014465332,0) translate(-2.000432014465332,0) translate(-2.000432014465332,0) translate(-2.000432014465332,0) translate(-2.000432014465332,0) translate(-2.000432014465332,0) translate(-2.000432014465332,0) translate(-2.000432014465332,0) translate(-2.000432014465332,0) translate(-2.000432014465332,0) translate(-2.000432014465332,0) translate(-2.000432014465332,0) translate(-2.000432014465332,0) translate(-2.000432014465332,0) translate(-2.000432014465332,0) translate(-2.000432014465332,0) translate(-2.000432014465332,0) translate(-2.000432014465332,0) translate(-2.000432014465332,0) translate(-2.000432014465332,0) translate(-2.000432014465332,0) translate(-2.000432014465332,0) translate(-2.000432014465332,0) translate(-2.000432014465332,0) translate(-2.000432014465332,0) translate(-2.000432014465332,0) translate(-2.000432014465332,0) translate(-2.000432014465332,0) translate(-2.000432014465332,0) translate(-2.000432014465332,0) translate(-2.000432014465332,0) translate(-2.000432014465332,0) translate(-2.000432014465332,0) translate(-2.000432014465332,0) translate(-2.000432014465332,0) translate(-2.000432014465332,0) translate(-2.000432014465332,0) translate(-2.000432014465332,0) translate(-2.000432014465332,0) translate(-2.000432014465332,0) translate(-2.000432014465332,0) translate(-2.000432014465332,0) translate(-2.000432014465332,0) translate(-2.000432014465332,0) translate(-2.000432014465332,0) translate(-2.000432014465332,0) translate(-2.000432014465332,0) translate(-2.000432014465332,0) translate(-2.000432014465332,0) translate(-2.000432014465332,0) translate(-2.000432014465332,0) translate(-2.000432014465332,0) translate(-2.000432014465332,0) translate(-2.000432014465332,0) translate(-2.000432014465332,0) translate(-2.000432014465332,0) translate(-2.000432014465332,0) translate(-2.000432014465332,0) translate(-2.000432014465332,0) translate(-2.000432014465332,0) translate(-2.000432014465332,0) translate(0,-1) translate(0,-1) translate(0,-1) translate(0,1) translate(0,1) translate(0,1) translate(0,1) translate(0,1) translate(0,1) translate(0,1) translate(0,1) translate(-2,12) ">
    <path d="m975,470.3l254.5,0l0,358.4l-254.5,0l0,-358.4z" id="SVGID_9_"/>
   </defs>
   <clipPath transform="translate(0,-2.000432014465332) translate(-390.0842590332031,4.000864505767822) translate(-2.000432014465332,0) translate(-2.000432014465332,0) translate(-2.000432014465332,0) translate(-2.000432014465332,0) translate(-2.000432014465332,0) translate(-2.000432014465332,0) translate(-2.000432014465332,0) translate(-2.000432014465332,0) translate(-2.000432014465332,0) translate(-2.000432014465332,0) translate(-2.000432014465332,0) translate(-2.000432014465332,0) translate(-2.000432014465332,0) translate(-2.000432014465332,0) translate(-2.000432014465332,0) translate(-2.000432014465332,0) translate(-2.000432014465332,0) translate(-2.000432014465332,0) translate(-2.000432014465332,0) translate(-2.000432014465332,0) translate(-2.000432014465332,0) translate(-2.000432014465332,0) translate(-2.000432014465332,0) translate(-2.000432014465332,0) translate(-2.000432014465332,0) translate(-2.000432014465332,0) translate(-2.000432014465332,0) translate(-2.000432014465332,0) translate(-2.000432014465332,0) translate(-2.000432014465332,0) translate(-2.000432014465332,0) translate(-2.000432014465332,0) translate(-2.000432014465332,0) translate(-2.000432014465332,0) translate(-2.000432014465332,0) translate(-2.000432014465332,0) translate(-2.000432014465332,0) translate(-2.000432014465332,0) translate(-2.000432014465332,0) translate(-2.000432014465332,0) translate(-2.000432014465332,0) translate(-2.000432014465332,0) translate(-2.000432014465332,0) translate(-2.000432014465332,0) translate(-2.000432014465332,0) translate(-2.000432014465332,0) translate(-2.000432014465332,0) translate(-2.000432014465332,0) translate(-2.000432014465332,0) translate(-2.000432014465332,0) translate(-2.000432014465332,0) translate(-2.000432014465332,0) translate(-2.000432014465332,0) translate(-2.000432014465332,0) translate(-2.000432014465332,0) translate(-2.000432014465332,0) translate(-2.000432014465332,0) translate(-2.000432014465332,0) translate(-2.000432014465332,0) translate(-2.000432014465332,0) translate(-2.000432014465332,0) translate(-2.000432014465332,0) translate(-2.000432014465332,0) translate(-2.000432014465332,0) translate(-2.000432014465332,0) translate(-2.000432014465332,0) translate(-2.000432014465332,0) translate(-2.000432014465332,0) translate(-2.000432014465332,0) translate(-2.000432014465332,0) translate(-2.000432014465332,0) translate(-2.000432014465332,0) translate(-2.000432014465332,0) translate(-2.000432014465332,0) translate(-2.000432014465332,0) translate(-2.000432014465332,0) translate(-2.000432014465332,0) translate(-2.000432014465332,0) translate(-2.000432014465332,0) translate(-2.000432014465332,0) translate(-2.000432014465332,0) translate(-2.000432014465332,0) translate(-2.000432014465332,0) translate(-2.000432014465332,0) translate(-2.000432014465332,0) translate(-2.000432014465332,0) translate(-2.000432014465332,0) translate(-2.000432014465332,0) translate(-2.000432014465332,0) translate(-2.000432014465332,0) translate(-2.000432014465332,0) translate(-2.000432014465332,0) translate(-2.000432014465332,0) translate(-2.000432014465332,0) translate(-2.000432014465332,0) translate(-2.000432014465332,0) translate(-2.000432014465332,0) translate(-2.000432014465332,0) translate(-2.000432014465332,0) translate(-2.000432014465332,0) translate(-2.000432014465332,0) translate(-2.000432014465332,0) translate(-2.000432014465332,0) translate(-2.000432014465332,0) translate(-2.000432014465332,0) translate(-2.000432014465332,0) translate(-2.000432014465332,0) translate(-2.000432014465332,0) translate(-2.000432014465332,0) translate(-2.000432014465332,0) translate(-2.000432014465332,0) translate(-2.000432014465332,0) translate(-2.000432014465332,0) translate(-2.000432014465332,0) translate(-2.000432014465332,0) translate(-2.000432014465332,0) translate(-2.000432014465332,0) translate(-2.000432014465332,0) translate(-2.000432014465332,0) translate(-2.000432014465332,0) translate(-2.000432014465332,0) translate(-2.000432014465332,0) translate(-2.000432014465332,0) translate(-2.000432014465332,0) translate(-2.000432014465332,0) translate(-2.000432014465332,0) translate(-2.000432014465332,0) translate(-2.000432014465332,0) translate(-2.000432014465332,0) translate(-2.000432014465332,0) translate(-2.000432014465332,0) translate(-2.000432014465332,0) translate(-2.000432014465332,0) translate(-2.000432014465332,0) translate(-2.000432014465332,0) translate(-2.000432014465332,0) translate(-2.000432014465332,0) translate(-2.000432014465332,0) translate(-2.000432014465332,0) translate(-2.000432014465332,0) translate(-2.000432014465332,0) translate(-2.000432014465332,0) translate(-2.000432014465332,0) translate(-2.000432014465332,0) translate(-2.000432014465332,0) translate(-2.000432014465332,0) translate(-2.000432014465332,0) translate(-2.000432014465332,0) translate(-2.000432014465332,0) translate(-2.000432014465332,0) translate(-2.000432014465332,0) translate(-2.000432014465332,0) translate(-2.000432014465332,0) translate(-2.000432014465332,0) translate(-2.000432014465332,0) translate(0,-1) translate(0,-1) translate(0,-1) translate(0,1) translate(0,1) translate(0,1) translate(0,1) translate(0,1) translate(0,1) translate(0,1) translate(0,1) translate(-2,12) " id="SVGID_10_">
    <use id="svg_15" xlink:href="#SVGID_9_"/>
   </clipPath>
   <path id="svg_16" d="m272.848779,639.600432l0,208.1l254.5,-358.4l-254.5,150.3z" class="st8"/>
  </g>
 </g>
</svg>