<svg id="Layer_1" xmlns="http://www.w3.org/2000/svg" viewBox="0 0 89.8 24">
  <style>
    .st0{enable-background:new ;} .st1{fill:#fff;} .st2{opacity:0.25;fill:#fff;enable-background:new ;} .st3{opacity:0.5;fill:#fff;enable-background:new ;} .st4{opacity:0.75;fill:#fff;enable-background:new ;}
  </style>
  <g id="Group_217">
    <g class="st0">
      <path class="st1" d="M24.5 5h2.7v6h7V5h2.7v14h-2.7v-5.7h-7V19h-2.7V5zM47.8 8.9c.8.5 1.5 1.1 2 1.9.5.8.7 1.8.7 2.8 0 1.1-.2 2-.7 2.9-.5.8-1.1 1.5-2 1.9s-1.8.7-2.9.7c-1.1 0-2.1-.2-3-.7s-1.5-1.1-2-1.9c-.5-.8-.7-1.8-.7-2.9 0-1.1.2-2 .7-2.8.5-.8 1.1-1.5 2-1.9s1.8-.7 3-.7c1.1 0 2.1.2 2.9.7zm-5.1 2.4c-.6.6-.8 1.4-.8 2.3s.3 1.7.8 2.3c.6.6 1.3.9 2.2.9.9 0 1.6-.3 2.2-.9.6-.6.8-1.4.8-2.3s-.3-1.7-.8-2.3c-.6-.6-1.3-.9-2.2-.9-.9 0-1.6.3-2.2.9zM63.1 4.2V19h-2.6v-1.7c-.4.6-.9 1.1-1.5 1.4s-1.3.5-2.1.5c-1 0-1.9-.2-2.7-.7s-1.4-1.1-1.8-1.9-.6-1.8-.6-2.9c0-1.1.2-2 .6-2.8s1-1.5 1.8-1.9 1.6-.7 2.6-.7c.8 0 1.5.2 2.1.5.6.3 1.1.8 1.5 1.4V4.3h2.7zM59.7 16c.6-.6.8-1.4.8-2.4s-.3-1.7-.8-2.3c-.6-.6-1.3-.9-2.2-.9s-1.6.3-2.2.9c-.6.6-.8 1.4-.9 2.3 0 1 .3 1.7.9 2.4.6.6 1.3.9 2.2.9s1.6-.3 2.2-.9zM66.5 4.2h2.6V19h-2.6V4.2zM74.8 4.1c.3.3.4.7.4 1.1 0 .4-.1.8-.4 1.1-.3.3-.6.4-1.1.4s-.8-.1-1.1-.4c-.3-.3-.4-.7-.4-1.1 0-.5.1-.8.4-1.1.3-.3.6-.4 1.1-.4s.8.1 1.1.4zm-2.3 4.2h2.6V19h-2.6V8.3zM85.9 8.9c.8.5 1.5 1.1 2 1.9.5.8.7 1.8.7 2.8 0 1.1-.2 2-.7 2.9-.5.8-1.1 1.5-2 1.9s-1.8.7-2.9.7c-1.1 0-2.1-.2-3-.7s-1.5-1.1-2-1.9c-.5-.8-.7-1.8-.7-2.9 0-1.1.2-2 .7-2.8.5-.8 1.1-1.5 2-1.9s1.8-.7 3-.7c1.1 0 2.1.2 2.9.7zm-5.1 2.4c-.6.6-.8 1.4-.8 2.3s.3 1.7.8 2.3c.6.6 1.3.9 2.2.9.9 0 1.6-.3 2.2-.9.6-.6.8-1.4.8-2.3s-.3-1.7-.8-2.3c-.6-.6-1.3-.9-2.2-.9-.9 0-1.7.3-2.2.9z"/>
    </g>
    <path id="Rectangle_54" class="st2" d="M6 4.9h3.7v2.6H6z"/>
    <path id="Rectangle_55" class="st3" d="M4 8.7h7.7v2.6H4z"/>
    <path id="Rectangle_56" class="st4" d="M2 12.6h11.7v2.6H2z"/>
    <path id="Rectangle_57" class="st1" d="M0 16.4h15.7V19H0z"/>
  </g>
</svg>
