<svg xmlns="http://www.w3.org/2000/svg" viewBox="0 0 110.6 195">
  <g fill="#ffd939">
    <path d="M70.195 101.974h-4v28.3h4v-16.2h4v-12.1h-4zM53.995 101.974h-8.1v32.4h4v20.2h4v24.3h4v-38.4h4v-38.5h-7.9zM33.795 101.974v20.2h4v16.2h4v-36.4h-8z"/>
  </g>
  <path fill="#f07979" d="M62.05 41.338h4v56.6h-4z"/>
  <path d="M74.25 101.938v-60.7l-2-6.1h-4l-2 6.1v60.7h8z" fill="#5e125c"/>
  <path fill="#f07979" d="M66.15 65.538h8.1v4h-8.1zM66.15 41.338h8.1v4h-8.1zM41.85 41.238h4v56.6h-4z"/>
  <path d="M33.75 97.938v-56.6l2-6.1h4l2 6.1v56.6h-8z" fill="#5e125c"/>
  <path fill="#f07979" d="M33.75 65.538h8.1v4h-8.1zM33.75 41.238h8.1v4h-8.1z"/>
  <path fill="#5e125c" d="M45.95 33.238h16.2v64.7h-16.2z"/>
  <path d="M29.75 97.973v-4l18.2-28.3v32.4l-18.2-.1zM78.284 97.973v-4l-18.2-28.3v32.4l18.2-.1z" fill="#fff"/>
  <path d="M58.028 43.361l-2-6.1h-4l-2 6.1-4 6.1v48.5h16.2v-48.5l-4.2-6.1z" fill="#fff"/>
  <path d="M49.95 43.338l-4 6.1v48.5h4v-54.6zM62.05 49.438l-4-6.1v54.6h4v-48.5zM58.05 17.038h-8.1l-4 12.1h16.2l-4.1-12.1z" fill="#5e125c"/>
  <path fill="#f07979" d="M45.95 29.138h16.2v4h-16.2zM37.85 97.938h-4v4h8.1v-4h-4.1zM70.15 97.938h-4v4h8.1v-4h-4.1zM58.05 97.938h-12.1v4h16.2v-4h-4.1zM49.95 49.438h8.1v4h-8.1zM82.297 87.8h4v4h-4z"/>
  <g fill="#f07979">
    <path d="M76.822 27.7l2.8 2.9 2.6-2.6v55.8h4V28l2.6 2.6 2.8-2.9-7.5-7.5-7.3 7.5zM16.222 7.5l2.8 2.9 2.6-2.6v53.8h4V7.8l2.6 2.6 2.8-2.9-7.5-7.5-7.3 7.5zM.022 56l2.8 2.9 2.6-2.6v33.6h4V56.3l2.6 2.6 2.8-2.9-7.5-7.5-7.3 7.5zM108.022 58l-7.5-7.5-7.5 7.5 2.8 2.9 2.6-2.6V102h4V58.3l2.6 2.6 3-2.9z"/>
  </g>
  <path fill="#f07979" d="M98.497 106h4v4h-4zM82.297 95.9h4v58.6h-4z"/>
  <path fill="#5e125c" d="M90.397 83.8h4v82.9h-4zM74.197 118.2h4v22.2h-4zM106.597 83.8h4v4h-4zM90.397 170.7h4v4h-4z"/>
  <path fill="#f07979" d="M21.597 65.6h4v4h-4zM21.597 73.7h4v10.1h-4z"/>
  <path fill="#5e125c" d="M13.597 67.6h4v42.5h-4zM74.197 144.4h4V195h-4z"/>
  <path fill="#f07979" d="M21.597 87.8h4v80.9h-4z"/>
</svg>
